<?xml version="1.0" encoding="UTF-8" standalone="no"?>
<!-- Created with Inkscape (http://www.inkscape.org/) -->

<svg
   xmlns:dc="http://purl.org/dc/elements/1.1/"
   xmlns:cc="http://creativecommons.org/ns#"
   xmlns:rdf="http://www.w3.org/1999/02/22-rdf-syntax-ns#"
   xmlns:svg="http://www.w3.org/2000/svg"
   xmlns="http://www.w3.org/2000/svg"
   xmlns:sodipodi="http://sodipodi.sourceforge.net/DTD/sodipodi-0.dtd"
   xmlns:inkscape="http://www.inkscape.org/namespaces/inkscape"
   width="1024"
   height="400"
   id="svg2"
   version="1.1"
   inkscape:version="0.48.2 r9819"
   sodipodi:docname="RGine_FBCover.svg"
   inkscape:export-filename="C:\Users\Ricardo\Desktop\bitmap.png"
   inkscape:export-xdpi="90"
   inkscape:export-ydpi="90">
  <defs
     id="defs4" />
  <sodipodi:namedview
     id="base"
     pagecolor="#ffffff"
     bordercolor="#666666"
     borderopacity="1.0"
     inkscape:pageopacity="0.0"
     inkscape:pageshadow="2"
     inkscape:zoom="0.70710678"
     inkscape:cx="527.00101"
     inkscape:cy="176.70594"
     inkscape:document-units="px"
     inkscape:current-layer="layer1"
     showgrid="false"
     inkscape:window-width="480"
     inkscape:window-height="425"
     inkscape:window-x="25"
     inkscape:window-y="25"
     inkscape:window-maximized="0"
     showguides="true"
     inkscape:guide-bbox="true"
     fit-margin-top="0"
     fit-margin-left="0"
     fit-margin-right="0"
     fit-margin-bottom="0" />
  <metadata
     id="metadata7">
    <rdf:RDF>
      <cc:Work
         rdf:about="">
        <dc:format>image/svg+xml</dc:format>
        <dc:type
           rdf:resource="http://purl.org/dc/dcmitype/StillImage" />
        <dc:title></dc:title>
      </cc:Work>
    </rdf:RDF>
  </metadata>
  <g
     inkscape:label="Camada 1"
     inkscape:groupmode="layer"
     id="layer1"
     transform="translate(104.7822,-652.51707)">
    <text
       xml:space="preserve"
       style="font-size:40px;font-style:normal;font-variant:normal;font-weight:bold;font-stretch:normal;line-height:125%;letter-spacing:0px;word-spacing:0px;fill:#000000;fill-opacity:1;stroke:none;font-family:Impact;-inkscape-font-specification:Impact Bold"
       x="-173.5"
       y="1044.8622"
       id="text4350"
       sodipodi:linespacing="125%"><tspan
         sodipodi:role="line"
         id="tspan4352"
         x="-173.5"
         y="1044.8622" /></text>
    <rect
       style="fill:#6c5d53;fill-opacity:1;stroke:none"
       id="rect3902"
       width="1024"
       height="400"
       x="-104.7822"
       y="652.51709" />
    <rect
       style="fill:#c8beb7;fill-opacity:1;stroke:none"
       id="rect3902-3-4"
       width="1024"
       height="220"
       x="-104.7822"
       y="692.51709" />
    <rect
       style="fill:#ac9d93;fill-opacity:1;stroke:none"
       id="rect3902-3"
       width="1024"
       height="200"
       x="-104.7822"
       y="702.51709" />
    <g
       id="g3878"
       transform="matrix(1.0532352,0,0,1.0532352,318.6341,-226.03097)">
      <g
         style="stroke-width:3;stroke-miterlimit:4;stroke-dasharray:none"
         id="g3850">
        <g
           style="stroke-width:3;stroke-miterlimit:4;stroke-dasharray:none"
           transform="translate(76.5,-76.512817)"
           id="g4509">
          <path
             inkscape:connector-curvature="0"
             id="path3308-0"
             d="m 0,977.375 c -6.5543468,0 -13.075237,0.83486 -19.40625,2.53125 l 3.90625,14.5 c -5.135001,1.3696 -10.004694,3.39994 -14.5,5.99995 l -7.5,-12.99995 c -5.676231,3.27717 -10.896627,7.30288 -15.53125,11.9375 l 10.59375,10.59375 c -3.693091,3.6931 -6.866575,7.8873 -9.5,12.4375 l -13,-7.5 c -3.277173,5.6762 -5.80361,11.7315 -7.5,18.0625 l 14.46875,3.875 C -59.297809,1041.7753 -60,1046.9929 -60,1052.375 l -15,0 c 0,6.5543 0.86611,13.0754 2.5625,19.4062 l 14.46875,-3.875 c 1.370867,5.1295 3.432378,9.9783 6.03125,14.4688 l -13,7.5 c 3.277173,5.6762 7.271627,10.8969 11.90625,15.5312 l 10.59375,-10.5937 c 3.693091,3.6931 7.887281,6.8666 12.4375,9.5 l -7.5,13 c 5.676231,3.2772 11.762737,5.8036 18.09375,7.5 l 3.875,-14.4687 c 4.954124,1.3239 10.1596998,2.0312 15.53125,2.0312 l 0,15 c 6.5543467,0 13.075237,-0.8661 19.40625,-2.5625 l -3.875,-14.4687 c 5.129336,-1.371 9.978233,-3.4324 14.46875,-6.0313 l 7.5,13 c 5.676231,-3.2772 10.896627,-7.2713 15.53125,-11.9063 L 42.4375,1094.8125 c 3.693091,-3.6931 6.866575,-7.8873 9.5,-12.4375 l 13,7.5 c 3.277173,-5.6762 5.80361,-11.7627 7.5,-18.0938 l -14.46875,-3.875 C 59.29279,1062.9522 60,1057.7466 60,1052.375 l 15,0 c 0,-6.5543 -0.86611,-13.1065 -2.5625,-19.4375 l -14.46875,3.875 c -1.370776,-5.1186 -3.437294,-9.9555 -6.03125,-14.4375 l 13,-7.5 c -3.277173,-5.6762 -7.271627,-10.8966 -11.90625,-15.53125 L 42.4375,1009.9375 c -3.696689,-3.6967 -7.882111,-6.8964 -12.4375,-9.5313 l 7.5,-12.99995 c -5.676231,-3.27717 -11.762737,-5.80361 -18.09375,-7.5 l -3.90625,14.5 C 10.554592,993.08722 5.3610295,992.375 0,992.375 l 0,-15 z m 0,45 c 13.060378,0 24.161518,8.3506 28.28125,20 l -38.28125,0 0,30 32.34375,0 c -5.492554,6.1242 -13.4698337,10 -22.34375,10 -16.568542,0 -30,-13.4315 -30,-30 0,-16.5685 13.431458,-30 30,-30 z"
             style="fill:#b3b3b3;fill-opacity:1;stroke:#000000;stroke-width:3;stroke-miterlimit:4;stroke-dasharray:none" />
          <path
             inkscape:connector-curvature="0"
             id="path3440"
             d="m 0,997.375 c -30.375661,0 -55,24.6243 -55,55 0,30.3757 24.624339,55 55,55 30.375661,0 55,-24.6243 55,-55 0,-30.3757 -24.624339,-55 -55,-55 z m 0,20 c 17.635939,0 32.203298,13.0335 34.625,30 l -39.625,0 0,20 36.65625,0 c -5.614447,11.8323 -17.688746,20 -31.65625,20 -19.329966,0 -35,-15.67 -35,-35 0,-19.33 15.670034,-35 35,-35 z"
             style="fill:#666666;fill-opacity:1;stroke:none" />
          <path
             inkscape:connector-curvature="0"
             id="path3287"
             d="m 0.125,1002.375 c -10.416243,-0.031 -20.934192,3.1523 -29.9375,9.8438 -22.16199,16.4711 -26.783608,47.8067 -10.3125,69.9687 16.471108,22.162 47.7755101,26.7836 69.9375,10.3125 13.185646,-9.7998 20.168084,-24.8642 20.1875,-40.125 l -5.5,0 -4.5,0 -40,0 0,10 38.6875,0 c -2.209206,8.5442 -7.214283,16.4234 -14.84375,22.0938 -17.7295917,13.1766 -42.760613,9.4793 -55.9375,-8.25 -13.176887,-17.7298 -9.479592,-42.7919 8.25,-55.9688 7.202647,-5.3531 15.6045055,-7.8999 23.9375,-7.875 12.178992,0.036 24.176224,5.5981 32,16.125 3.18487,4.2853 5.371565,9.0043 6.625,13.875 l 10.28125,0 c -1.414922,-6.9742 -4.35036,-13.7557 -8.875,-19.8438 -9.77972,-13.1585 -24.77626,-20.1108 -40,-20.1562 z"
             style="fill:#f2f2f2;fill-opacity:1;stroke:none" />
        </g>
        <g
           id="g4505"
           transform="translate(76.5,-70.025635)"
           style="stroke-width:3;stroke-miterlimit:4;stroke-dasharray:none">
          <path
             inkscape:connector-curvature="0"
             id="rect4354"
             d="m 97,1034.375 0,60 10,0 0,-60 -10,0 z m 30,0 0,60 10,0 0,-60 -10,0 z m 30,0 0,10 0,40 0,10 10,0 30,0 0,-10 -30,0 0,-40 30,0 0,-10 -40,0 z m -90,0.2813 0,59.7187 10,0 0,-59.7187 -10,0 z"
             style="fill:#666666;fill-opacity:1;stroke:#000000;stroke-width:3;stroke-miterlimit:4;stroke-dasharray:none" />
          <path
             inkscape:connector-curvature="0"
             id="rect4354-9-0"
             d="m 67,1014.375 0,10 10,0 0,-10 -10,0 z m 32.375,21.6563 -7.09375,7.0625 42.4375,42.4374 7.0625,-7.0937 -42.40625,-42.4062 z m 52.625,23.3437 0,10 30,0 0,-10 -30,0 z"
             style="fill:#b3b3b3;fill-opacity:1;stroke:#000000;stroke-width:3;stroke-miterlimit:4;stroke-dasharray:none" />
        </g>
        <path
           inkscape:connector-curvature="0"
           style="fill:#666666;fill-opacity:1;stroke:#000000;stroke-width:1;stroke-miterlimit:4;stroke-dasharray:none"
           d="m 178.40625,972.70598 c -1.933,0 -3.5,1.567 -3.5,3.5 0,1.9329 1.567,3.5 3.5,3.5 1.933,0 3.5,-1.5671 3.5,-3.5 0,-1.933 -1.567,-3.5 -3.5,-3.5 z m 60.03125,17.9062 c -1.933,0 -3.5,1.567 -3.5,3.5 0,1.933 1.567,3.5 3.5,3.5 1.933,0 3.5,-1.567 3.5,-3.5 0,-1.933 -1.567,-3.5 -3.5,-3.5 z m -29.34375,11.43752 c -1.933,0 -3.5,1.567 -3.5,3.5 0,1.933 1.567,3.5 3.5,3.5 1.933,0 3.5,-1.567 3.5,-3.5 0,-1.933 -1.567,-3.5 -3.5,-3.5 z"
           id="path4514" />
      </g>
      <g
         style="stroke-width:2.23031855;stroke-miterlimit:4;stroke-dasharray:none"
         transform="matrix(1.3450994,0,0,1.3450994,171.06183,-364.51468)"
         id="g3843">
        <rect
           transform="matrix(0,1,-1,0,0,0)"
           style="fill:#803300;fill-opacity:1;stroke:#000000;stroke-width:2.23031855;stroke-miterlimit:4;stroke-dasharray:none"
           id="rect4553-2"
           width="10.643081"
           height="21.841597"
           x="975.23248"
           y="167.50768" />
        <rect
           style="fill:#803300;fill-opacity:1;stroke:#000000;stroke-width:2.23031855;stroke-miterlimit:4;stroke-dasharray:none"
           id="rect4553-7"
           width="10"
           height="100"
           x="-838.35266"
           y="549.91223"
           transform="matrix(0.70710678,-0.70710678,0.70710678,0.70710678,0,0)" />
        <g
           id="g3071"
           transform="matrix(0.92756039,-0.15951421,0.15951427,0.92756076,-198.17524,43.971085)"
           style="stroke:#000000;stroke-width:2.36971307;stroke-miterlimit:4;stroke-dasharray:none">
          <path
             inkscape:connector-curvature="0"
             id="path3308-0-3"
             d="m -128.69344,945.16193 c -3.71413,0 -7.43586,0.4665 -11.02343,1.4278 l 2.2246,8.2011 c -2.90982,0.7761 -5.65382,1.9466 -8.20117,3.4198 l -4.25,-7.3709 c -3.21652,1.8569 -6.17254,4.147 -8.79883,6.7734 l 5.97657,5.9765 c -2.09276,2.0926 -3.88662,4.4938 -5.3789,7.0723 l -7.3711,-4.25 c -1.85707,3.2165 -3.28872,6.639 -4.25,10.2265 l 8.20117,2.1914 c -0.75313,2.8122 -1.12891,5.7823 -1.12891,8.8321 l -8.5,0 c 0,3.714 0.46646,7.4028 1.42774,10.9902 l 8.20117,-2.1915 c 0.77682,2.9067 1.94724,5.65657 3.41993,8.20117 l -7.3711,4.25 c 1.85707,3.2166 4.14715,6.1729 6.77343,8.7989 l 5.97657,-6.0098 c 2.09274,2.0928 4.49381,3.8867 7.07226,5.3789 l -4.25,7.3711 c 3.21654,1.8572 6.639,3.2888 10.22657,4.25 l 2.2246,-8.2011 c 2.80734,0.7503 5.75496,1.1621 8.79883,1.1621 l 0,8.5 c 3.71414,0 7.40266,-0.4996 10.99024,-1.461 l -2.1914,-8.2011 c 2.90662,-0.7768 5.65654,-1.9472 8.20116,-3.42 l 4.25,7.3711 c 3.21654,-1.8569 6.17255,-4.1136 8.798837,-6.7402 l -6.009767,-6.0098 c 2.09275,-2.0928 3.88663,-4.4607 5.378906,-7.0391 l 7.371096,4.25 c 1.857065,-3.2166 3.28871,-6.6721 4.249995,-10.25967 l -8.201173,-2.1915 c 0.750286,-2.8072 1.162111,-5.7548 1.162111,-8.7987 l 8.5,0 c 0,-3.7141 -0.499651,-7.4358 -1.460938,-11.0235 l -8.201173,2.1914 c -0.776777,-2.9004 -1.950003,-5.6281 -3.419918,-8.1679 l 7.371096,-4.25 c -1.857061,-3.2165 -4.113953,-6.1725 -6.740235,-8.7988 l -6.009767,5.9765 c -2.09479,-2.0949 -4.45768,-3.8858 -7.03907,-5.379 l 4.25,-7.3709 c -3.21652,-1.8571 -6.67218,-3.2888 -10.25976,-4.25 l -2.22461,8.2011 c -2.80239,-0.7474 -5.72771,-1.1289 -8.76563,-1.1289 l 0,-8.5 z m 0,26.5625 c 8.80204,0 15.9375,7.1354 15.9375,15.9375 0,8.802 -7.13546,15.93737 -15.9375,15.93737 -8.80204,0 -15.9375,-7.13537 -15.9375,-15.93737 0,-8.8021 7.13546,-15.9375 15.9375,-15.9375 z"
             style="fill:#b3b3b3;fill-opacity:1;stroke:#000000;stroke-width:2.36971307;stroke-miterlimit:4;stroke-dasharray:none" />
          <path
             inkscape:connector-curvature="0"
             id="path3019"
             d="m -128.69344,957.66183 c -16.56854,0 -30,13.4315 -30,30 0,16.56847 13.43146,30.00007 30,30.00007 16.56854,0 30.000005,-13.4316 30.000005,-30.00007 0,-16.5685 -13.431465,-30 -30.000005,-30 z m -1.03125,10 c 0.34089,-0.017 0.68607,0 1.03125,0 11.0457,0 20,8.9543 20,20 0,11.0457 -8.9543,19.99997 -20,19.99997 -11.04569,0 -20,-8.95427 -20,-19.99997 0,-10.7005 8.40135,-19.4643 18.96875,-20 z"
             style="fill:#666666;fill-opacity:1;stroke:none" />
        </g>
        <rect
           style="fill:#d45500;fill-opacity:1;stroke:#000000;stroke-width:2.23031855;stroke-miterlimit:4;stroke-dasharray:none"
           id="rect4553"
           width="10"
           height="100"
           x="-188.54764"
           y="952.36218" />
      </g>
    </g>
    <text
       xml:space="preserve"
       style="font-size:47.6529007px;font-style:normal;font-weight:normal;line-height:125%;letter-spacing:0px;word-spacing:0px;fill:#ffffff;fill-opacity:1;stroke:#000000;stroke-width:2.71029639;stroke-linecap:square;stroke-linejoin:round;stroke-miterlimit:4;stroke-dasharray:none;stroke-dashoffset:0;font-family:impact;-inkscape-font-specification:impact"
       x="412.29294"
       y="966.37213"
       id="text3896"
       sodipodi:linespacing="125%"><tspan
         sodipodi:role="line"
         id="tspan3898"
         x="412.29294"
         y="966.37213"
         style="font-weight:bold;text-align:center;text-anchor:middle;fill:#ffffff;stroke:#000000;stroke-width:2.71029639;stroke-linecap:square;stroke-linejoin:round;stroke-miterlimit:4;stroke-dasharray:none;stroke-dashoffset:0;font-family:impact;-inkscape-font-specification:impact">C++/SDL/OpenGL</tspan><tspan
         sodipodi:role="line"
         x="412.29294"
         y="1025.9382"
         id="tspan3900"
         style="font-weight:bold;text-align:center;text-anchor:middle;fill:#ffffff;stroke:#000000;stroke-width:2.71029639;stroke-linecap:square;stroke-linejoin:round;stroke-miterlimit:4;stroke-dasharray:none;stroke-dashoffset:0;font-family:impact;-inkscape-font-specification:impact">simple game engine</tspan></text>
  </g>
</svg>
